<svg xmlns="http://www.w3.org/2000/svg" width="1024" height="1024" viewBox="0 0 1024 1024">
  <defs>
    <linearGradient id="bg" x1="0" y1="0" x2="1" y2="1">
      <stop offset="0" stop-color="#6E6EF0"/>
      <stop offset="0.55" stop-color="#4A4DC0"/>
      <stop offset="1" stop-color="#23255F"/>
    </linearGradient>
    <radialGradient id="glow" cx="0.5" cy="0.42" r="0.5">
      <stop offset="0" stop-color="#3DDC97" stop-opacity="0.35"/>
      <stop offset="1" stop-color="#3DDC97" stop-opacity="0"/>
    </radialGradient>
  </defs>
  <rect width="1024" height="1024" rx="224" fill="url(#bg)"/>
  <rect width="1024" height="1024" rx="224" fill="url(#glow)"/>
  <!-- gauge track -->
  <path d="M 222 660 A 290 290 0 0 1 802 660" stroke="#FFFFFF" stroke-opacity="0.32" stroke-width="46" fill="none" stroke-linecap="round"/>
  <!-- ticks -->
  <g stroke="#FFFFFF" stroke-opacity="0.55" stroke-width="12" stroke-linecap="round">
    <line x1="262" y1="583" x2="300" y2="596"/>
    <line x1="762" y1="583" x2="724" y2="596"/>
    <line x1="352" y1="437" x2="379" y2="465"/>
    <line x1="672" y1="437" x2="645" y2="465"/>
  </g>
  <!-- in-tune band -->
  <path d="M 471 373 A 290 290 0 0 1 553 373" stroke="#3DDC97" stroke-width="46" fill="none" stroke-linecap="round"/>
  <!-- needle -->
  <line x1="512" y1="660" x2="512" y2="404" stroke="#3DDC97" stroke-width="30" stroke-linecap="round"/>
  <circle cx="512" cy="660" r="46" fill="#FFFFFF"/>
  <circle cx="512" cy="660" r="20" fill="#3DDC97"/>
  <!-- beat dots -->
  <circle cx="392" cy="800" r="26" fill="#FFFFFF" fill-opacity="0.45"/>
  <circle cx="512" cy="800" r="36" fill="#FFB454"/>
  <circle cx="632" cy="800" r="26" fill="#FFFFFF" fill-opacity="0.45"/>
</svg>