<svg xmlns="http://www.w3.org/2000/svg" width="1024" height="1024" viewBox="0 0 1024 1024">
  <defs>
    <linearGradient id="bg" x1="0" y1="0" x2="1" y2="1">
      <stop offset="0" stop-color="#8E6BFF"/>
      <stop offset="0.55" stop-color="#5B2ED9"/>
      <stop offset="1" stop-color="#26125E"/>
    </linearGradient>
    <radialGradient id="glow" cx="0.5" cy="0.5" r="0.5">
      <stop offset="0" stop-color="#5EF2C1" stop-opacity="0.38"/>
      <stop offset="0.55" stop-color="#5EF2C1" stop-opacity="0.08"/>
      <stop offset="1" stop-color="#5EF2C1" stop-opacity="0"/>
    </radialGradient>
    <radialGradient id="dot" cx="0.38" cy="0.34" r="0.7">
      <stop offset="0" stop-color="#C9FFEC"/>
      <stop offset="0.5" stop-color="#5EF2C1"/>
      <stop offset="1" stop-color="#2FCF9B"/>
    </radialGradient>
  </defs>
  <rect width="1024" height="1024" rx="224" fill="url(#bg)"/>
  <circle cx="512" cy="512" r="420" fill="url(#glow)"/>
  <!-- sound field -->
  <g>
<line x1="512.0" y1="302.0" x2="512.0" y2="52.0" stroke="#FFFFFF" stroke-opacity="1" stroke-width="60" stroke-linecap="round"/>
<line x1="592.4" y1="318.0" x2="641.3" y2="199.7" stroke="#FFFFFF" stroke-opacity="0.62" stroke-width="60" stroke-linecap="round"/>
<line x1="660.5" y1="363.5" x2="787.8" y2="236.2" stroke="#FFFFFF" stroke-opacity="1" stroke-width="60" stroke-linecap="round"/>
<line x1="706.0" y1="431.6" x2="824.3" y2="382.7" stroke="#FFFFFF" stroke-opacity="0.62" stroke-width="60" stroke-linecap="round"/>
<line x1="722.0" y1="512.0" x2="947.0" y2="512.0" stroke="#FFFFFF" stroke-opacity="1" stroke-width="60" stroke-linecap="round"/>
<line x1="706.0" y1="592.4" x2="824.3" y2="641.3" stroke="#FFFFFF" stroke-opacity="0.62" stroke-width="60" stroke-linecap="round"/>
<line x1="660.5" y1="660.5" x2="837.3" y2="837.3" stroke="#FFFFFF" stroke-opacity="1" stroke-width="60" stroke-linecap="round"/>
<line x1="592.4" y1="706.0" x2="641.3" y2="824.3" stroke="#FFFFFF" stroke-opacity="0.62" stroke-width="60" stroke-linecap="round"/>
<line x1="512.0" y1="722.0" x2="512.0" y2="917.0" stroke="#FFFFFF" stroke-opacity="1" stroke-width="60" stroke-linecap="round"/>
<line x1="431.6" y1="706.0" x2="382.7" y2="824.3" stroke="#FFFFFF" stroke-opacity="0.62" stroke-width="60" stroke-linecap="round"/>
<line x1="363.5" y1="660.5" x2="207.9" y2="816.1" stroke="#FFFFFF" stroke-opacity="1" stroke-width="60" stroke-linecap="round"/>
<line x1="318.0" y1="592.4" x2="199.7" y2="641.3" stroke="#FFFFFF" stroke-opacity="0.62" stroke-width="60" stroke-linecap="round"/>
<line x1="302.0" y1="512.0" x2="52.0" y2="512.0" stroke="#FFFFFF" stroke-opacity="1" stroke-width="60" stroke-linecap="round"/>
<line x1="318.0" y1="431.6" x2="199.7" y2="382.7" stroke="#FFFFFF" stroke-opacity="0.62" stroke-width="60" stroke-linecap="round"/>
<line x1="363.5" y1="363.5" x2="222.1" y2="222.1" stroke="#FFFFFF" stroke-opacity="1" stroke-width="60" stroke-linecap="round"/>
<line x1="431.6" y1="318.0" x2="382.7" y2="199.7" stroke="#FFFFFF" stroke-opacity="0.62" stroke-width="60" stroke-linecap="round"/>

  </g>
  <!-- centre dot: the app's one "live" colour -->
  <circle cx="512" cy="512" r="158" fill="#5EF2C1" fill-opacity="0.26"/>
  <circle cx="512" cy="512" r="130" fill="url(#dot)"/>
</svg>